<?xml version="1.0" encoding="UTF-8"?>
<svg xmlns="http://www.w3.org/2000/svg" xmlns:xlink="http://www.w3.org/1999/xlink" width="375pt" height="374.999991pt" viewBox="0 0 375 374.999991" version="1.2">
<defs>
<clipPath id="clip1">
  <path d="M 89 7.746094 L 327 7.746094 L 327 327 L 89 327 Z M 89 7.746094 "/>
</clipPath>
</defs>
<g id="surface1">
<g clip-path="url(#clip1)" clip-rule="nonzero">
<path style=" stroke:none;fill-rule:nonzero;fill:rgb(65.489197%,86.669922%,91.758728%);fill-opacity:1;" d="M 291.023438 7.746094 L 326.460938 32.011719 L 124.121094 326.234375 L 89.625 300.5625 Z M 291.023438 7.746094 "/>
</g>
<path style=" stroke:none;fill-rule:nonzero;fill:rgb(15.689087%,10.978699%,13.328552%);fill-opacity:1;" d="M 136.585938 308.078125 L 136.113281 308.703125 C 129.527344 304.320312 123.023438 299.859375 116.515625 295.316406 C 116.125 295.003906 116.515625 294.378906 116.984375 294.691406 C 123.492188 299.230469 130 303.695312 136.585938 308.078125 Z M 146.621094 276.613281 C 146.226562 276.296875 145.757812 277.003906 146.148438 277.238281 C 148.734375 279.117188 151.402344 280.917969 153.988281 282.636719 L 154.457031 282.011719 C 151.871094 280.289062 149.207031 278.488281 146.621094 276.613281 Z M 151.007812 241.9375 C 150.539062 241.625 150.148438 242.328125 150.539062 242.5625 C 157.75 247.179688 164.964844 251.722656 172.175781 256.339844 L 172.648438 255.710938 C 165.433594 251.09375 158.222656 246.476562 151.007812 241.9375 Z M 256.6875 88.054688 C 256.296875 87.742188 255.824219 88.445312 256.214844 88.679688 C 263.195312 93.613281 270.328125 98.464844 277.460938 103.160156 L 277.933594 102.535156 C 270.796875 97.839844 263.742188 92.984375 256.6875 88.054688 Z M 286.789062 70.367188 C 286.398438 70.050781 285.929688 70.757812 286.320312 70.992188 C 289.300781 73.105469 292.277344 75.140625 295.335938 77.175781 L 295.804688 76.546875 C 292.828125 74.515625 289.769531 72.402344 286.789062 70.367188 Z M 290.632812 35.222656 C 290.160156 34.910156 289.769531 35.613281 290.160156 35.847656 C 297.921875 40.777344 305.683594 45.789062 313.523438 50.71875 L 313.996094 50.09375 C 306.234375 45.160156 298.472656 40.152344 290.632812 35.222656 Z M 298 58.46875 C 297.609375 58.15625 297.140625 58.859375 297.53125 59.09375 C 299.882812 60.738281 302.234375 62.226562 304.585938 63.710938 L 305.058594 63.085938 C 302.625 61.597656 300.273438 60.035156 298 58.46875 Z M 279.96875 85.863281 C 282.085938 87.351562 284.203125 88.914062 286.320312 90.402344 L 286.789062 89.777344 C 284.675781 88.289062 282.558594 86.722656 280.441406 85.238281 C 280.050781 84.84375 279.578125 85.550781 279.96875 85.863281 Z M 158.066406 264.480469 C 157.59375 264.167969 157.203125 264.871094 157.59375 265.105469 C 159.554688 266.359375 161.4375 267.6875 163.394531 268.941406 L 163.867188 268.316406 C 161.984375 267.0625 160.023438 265.808594 158.066406 264.480469 Z M 139.25 291.71875 C 138.78125 291.484375 138.386719 292.109375 138.78125 292.34375 C 140.816406 293.519531 142.855469 294.769531 144.894531 295.945312 L 145.363281 295.316406 C 143.328125 294.144531 141.289062 292.890625 139.25 291.71875 Z M 139.25 291.71875 "/>
<path style=" stroke:none;fill-rule:nonzero;fill:rgb(94.898987%,85.488892%,39.99939%);fill-opacity:1;" d="M 231.445312 106.917969 C 231.285156 106.761719 231.050781 106.527344 230.894531 106.371094 C 224.152344 99.953125 216.625 94.550781 208.628906 90.246094 C 208.394531 90.089844 208.160156 90.011719 207.925781 89.855469 C 200.398438 85.863281 192.402344 82.808594 184.171875 80.777344 C 183.9375 80.695312 183.621094 80.617188 183.386719 80.617188 C 174.371094 78.425781 165.042969 77.488281 155.636719 77.800781 C 155.398438 77.800781 155.085938 77.800781 154.851562 77.800781 C 146.070312 78.113281 137.289062 79.601562 128.667969 82.261719 C 128.429688 82.339844 128.195312 82.417969 127.882812 82.496094 C 120.511719 84.765625 113.222656 87.976562 106.246094 92.046875 C 106.011719 92.203125 105.773438 92.28125 105.539062 92.4375 C 98.640625 96.585938 92.371094 101.359375 86.804688 106.683594 C 86.566406 106.839844 86.410156 107.074219 86.253906 107.230469 C 79.824219 113.492188 74.339844 120.460938 69.792969 127.894531 C 69.632812 128.128906 69.476562 128.363281 69.398438 128.597656 C 64.617188 136.660156 60.933594 145.269531 58.503906 154.195312 C 58.425781 154.429688 58.347656 154.742188 58.265625 154.976562 C 56.070312 163.195312 54.894531 171.648438 54.738281 180.179688 C 54.738281 180.414062 54.738281 180.726562 54.738281 180.964844 C 54.660156 190.121094 55.757812 199.433594 58.1875 208.515625 C 58.265625 208.75 58.347656 209.0625 58.425781 209.296875 C 60.460938 216.65625 63.285156 223.933594 67.046875 230.980469 C 68.300781 233.328125 71.28125 234.1875 73.632812 232.859375 L 244.300781 131.105469 C 246.730469 129.617188 247.4375 126.40625 245.867188 124.058594 C 241.554688 117.796875 236.695312 112.007812 231.445312 106.917969 Z M 92.761719 190.355469 C 78.335938 166.25 92.292969 136.191406 121.296875 118.972656 C 150.304688 101.675781 183.386719 103.628906 197.8125 127.738281 Z M 92.761719 190.355469 "/>
<path style=" stroke:none;fill-rule:nonzero;fill:rgb(15.689087%,10.978699%,13.328552%);fill-opacity:1;" d="M 117.925781 111.847656 C 118.160156 112.320312 117.457031 112.710938 117.222656 112.242188 C 113.378906 105.585938 109.460938 99.011719 105.460938 92.4375 C 105.695312 92.28125 105.933594 92.125 106.167969 92.046875 C 110.164062 98.621094 114.085938 105.273438 117.925781 111.847656 Z M 86.726562 106.761719 C 86.488281 106.917969 86.332031 107.152344 86.175781 107.308594 C 89.9375 112.085938 93.703125 116.859375 97.542969 121.554688 C 97.855469 121.945312 98.40625 121.398438 98.09375 120.929688 C 94.328125 116.3125 90.488281 111.535156 86.726562 106.761719 Z M 81.628906 137.523438 C 77.710938 134.3125 73.710938 131.183594 69.714844 127.972656 C 69.554688 128.207031 69.398438 128.441406 69.320312 128.679688 C 73.242188 131.808594 77.160156 134.941406 81.082031 138.070312 C 81.472656 138.460938 82.019531 137.914062 81.628906 137.523438 Z M 71.988281 159.046875 C 67.441406 157.480469 62.972656 155.917969 58.425781 154.351562 C 58.347656 154.585938 58.265625 154.898438 58.1875 155.132812 C 62.734375 156.699219 67.203125 158.265625 71.75 159.828125 C 72.222656 159.988281 72.457031 159.203125 71.988281 159.046875 Z M 67.441406 180.570312 C 63.207031 180.492188 58.972656 180.335938 54.660156 180.257812 C 54.660156 180.492188 54.660156 180.808594 54.660156 181.042969 C 58.894531 181.121094 63.207031 181.277344 67.441406 181.355469 C 67.910156 181.433594 67.910156 180.648438 67.441406 180.570312 Z M 72.378906 205.226562 C 67.597656 206.480469 62.894531 207.574219 58.109375 208.671875 C 58.1875 208.90625 58.265625 209.21875 58.347656 209.453125 C 63.128906 208.4375 67.910156 207.261719 72.691406 206.011719 C 73.164062 205.855469 72.925781 205.070312 72.378906 205.226562 Z M 127.804688 82.496094 C 130.3125 88.210938 132.742188 93.925781 135.171875 99.640625 C 135.410156 100.109375 136.191406 99.875 135.957031 99.402344 C 133.527344 93.691406 131.097656 87.976562 128.589844 82.261719 C 128.351562 82.339844 128.117188 82.417969 127.804688 82.496094 Z M 154.773438 77.878906 C 155.714844 82.890625 156.652344 87.976562 157.59375 92.984375 C 157.671875 93.535156 158.457031 93.300781 158.378906 92.75 C 157.4375 87.742188 156.496094 82.808594 155.636719 77.800781 C 155.320312 77.800781 155.007812 77.878906 154.773438 77.878906 Z M 183.308594 80.695312 C 182.523438 85.394531 181.820312 90.011719 181.035156 94.707031 C 180.957031 95.175781 181.742188 95.414062 181.820312 94.941406 C 182.601562 90.246094 183.308594 85.628906 184.09375 80.933594 C 183.855469 80.777344 183.621094 80.695312 183.308594 80.695312 Z M 207.847656 89.933594 C 205.964844 93.613281 204.082031 97.289062 202.28125 100.890625 C 202.046875 101.359375 202.75 101.753906 202.984375 101.28125 C 204.867188 97.605469 206.75 93.925781 208.550781 90.246094 C 208.316406 90.167969 208.082031 90.011719 207.847656 89.933594 Z M 230.816406 106.371094 C 227.679688 109.734375 224.464844 113.023438 221.253906 116.46875 C 220.9375 116.859375 221.488281 117.40625 221.878906 117.015625 C 225.015625 113.648438 228.308594 110.363281 231.445312 106.917969 C 231.207031 106.761719 231.050781 106.527344 230.816406 106.371094 Z M 230.816406 106.371094 "/>
<path style=" stroke:none;fill-rule:nonzero;fill:rgb(90.979004%,48.239136%,41.178894%);fill-opacity:1;" d="M 364.167969 111.535156 L 329.28125 309.640625 C 328.183594 316.058594 321.992188 320.367188 315.640625 319.191406 L 170.6875 293.753906 C 164.257812 292.65625 159.945312 286.472656 161.121094 280.132812 L 196.007812 82.027344 C 197.105469 75.609375 203.300781 71.304688 209.648438 72.480469 L 354.601562 97.917969 C 361.03125 99.011719 365.265625 105.117188 364.167969 111.535156 Z M 364.167969 111.535156 "/>
<path style=" stroke:none;fill-rule:nonzero;fill:rgb(81.959534%,31.369019%,50.588989%);fill-opacity:1;" d="M 299.570312 236.300781 L 321.753906 240.214844 C 323.636719 240.527344 324.890625 242.328125 324.578125 244.207031 L 315.5625 294.925781 C 315.25 296.804688 313.445312 298.058594 311.5625 297.746094 L 289.378906 293.832031 C 287.496094 293.519531 286.242188 291.71875 286.554688 289.839844 L 295.492188 239.121094 C 295.886719 237.242188 297.6875 235.988281 299.570312 236.300781 Z M 299.570312 236.300781 "/>
<path style=" stroke:none;fill-rule:nonzero;fill:rgb(94.898987%,85.488892%,39.99939%);fill-opacity:1;" d="M 202.515625 149.96875 L 223.761719 153.726562 C 225.878906 154.117188 227.289062 156.152344 226.976562 158.265625 L 223.917969 175.71875 C 223.527344 177.832031 221.488281 179.242188 219.371094 178.929688 L 198.125 175.171875 C 196.007812 174.78125 194.597656 172.746094 194.910156 170.632812 L 197.96875 153.175781 C 198.359375 151.0625 200.398438 149.65625 202.515625 149.96875 Z M 234.816406 159.359375 L 231.601562 177.441406 C 231.285156 179.398438 232.542969 181.277344 234.5 181.589844 L 256.375 185.425781 C 258.332031 185.738281 260.214844 184.484375 260.527344 182.527344 L 263.742188 164.449219 C 264.054688 162.492188 262.800781 160.613281 260.84375 160.300781 L 238.96875 156.464844 C 237.007812 156.074219 235.128906 157.402344 234.816406 159.359375 Z M 271.035156 166.5625 L 268.132812 182.921875 C 267.742188 185.347656 269.308594 187.695312 271.738281 188.085938 L 291.886719 191.609375 C 294.316406 192 296.667969 190.433594 297.0625 188.007812 L 299.960938 171.648438 C 300.351562 169.222656 298.785156 166.875 296.355469 166.484375 L 276.207031 162.960938 C 273.777344 162.492188 271.425781 164.136719 271.035156 166.5625 Z M 307.175781 172.980469 L 304.273438 189.339844 C 303.882812 191.765625 305.449219 194.113281 307.957031 194.503906 L 328.105469 198.027344 C 330.535156 198.417969 332.886719 196.851562 333.28125 194.347656 L 336.179688 177.988281 C 336.574219 175.5625 335.003906 173.214844 332.496094 172.824219 L 312.347656 169.300781 C 309.917969 168.910156 307.644531 170.476562 307.175781 172.980469 Z M 191.855469 187.929688 L 188.71875 205.539062 C 188.324219 207.652344 189.738281 209.609375 191.855469 210.003906 L 213.335938 213.757812 C 215.449219 214.152344 217.410156 212.742188 217.800781 210.628906 L 220.9375 193.015625 C 221.332031 190.902344 219.917969 188.945312 217.800781 188.554688 L 196.320312 184.796875 C 194.207031 184.40625 192.246094 185.816406 191.855469 187.929688 Z M 228.621094 194.582031 L 225.5625 211.800781 C 225.171875 213.992188 226.660156 216.105469 228.855469 216.5 L 249.867188 220.175781 C 252.0625 220.570312 254.179688 219.082031 254.570312 216.890625 L 257.628906 199.671875 C 258.019531 197.480469 256.53125 195.367188 254.335938 194.972656 L 233.324219 191.296875 C 231.050781 190.902344 228.933594 192.390625 228.621094 194.582031 Z M 265.074219 200.140625 L 261.78125 219.003906 C 261.46875 220.726562 262.644531 222.449219 264.371094 222.761719 L 287.027344 226.753906 C 288.75 227.066406 290.476562 225.890625 290.789062 224.167969 L 294.082031 205.304688 C 294.394531 203.582031 293.21875 201.863281 291.496094 201.546875 L 268.839844 197.558594 C 267.113281 197.242188 265.390625 198.417969 265.074219 200.140625 Z M 301.214844 206.714844 L 298 225.109375 C 297.6875 226.988281 298.941406 228.789062 300.824219 229.101562 L 323.011719 233.015625 C 324.890625 233.328125 326.695312 232.074219 327.007812 230.195312 L 330.222656 211.800781 C 330.535156 209.925781 329.28125 208.125 327.398438 207.808594 L 305.214844 203.898438 C 303.332031 203.582031 301.53125 204.835938 301.214844 206.714844 Z M 186.050781 220.648438 L 183.074219 237.476562 C 182.679688 239.746094 184.25 242.015625 186.523438 242.40625 L 207.140625 246.007812 C 209.414062 246.398438 211.6875 244.832031 212.078125 242.5625 L 215.058594 225.734375 C 215.449219 223.464844 213.882812 221.195312 211.609375 220.804688 L 190.992188 217.203125 C 188.71875 216.8125 186.445312 218.378906 186.050781 220.648438 Z M 222.976562 226.203125 L 219.683594 244.832031 C 219.371094 246.632812 220.546875 248.355469 222.351562 248.667969 L 244.769531 252.582031 C 246.574219 252.894531 248.296875 251.722656 248.613281 249.921875 L 251.90625 231.292969 C 252.21875 229.492188 251.042969 227.769531 249.238281 227.457031 L 226.816406 223.542969 C 225.015625 223.230469 223.289062 224.402344 222.976562 226.203125 Z M 259.351562 232.9375 L 256.214844 250.9375 C 255.902344 252.894531 257.15625 254.773438 259.195312 255.164062 L 280.988281 259 C 282.949219 259.3125 284.832031 258.0625 285.222656 256.027344 L 288.359375 238.023438 C 288.671875 236.066406 287.417969 234.1875 285.378906 233.796875 L 263.585938 229.960938 C 261.546875 229.648438 259.667969 230.980469 259.351562 232.9375 Z M 180.484375 252.191406 L 177.195312 270.664062 C 176.878906 272.542969 178.132812 274.261719 179.9375 274.578125 L 202.203125 278.488281 C 204.082031 278.804688 205.808594 277.550781 206.121094 275.75 L 209.414062 257.277344 C 209.726562 255.398438 208.472656 253.679688 206.671875 253.363281 L 184.40625 249.449219 C 182.601562 249.058594 180.878906 250.3125 180.484375 252.191406 Z M 217.332031 258.6875 L 214.117188 277.160156 C 213.804688 279.039062 215.058594 280.761719 216.863281 281.074219 L 239.125 284.988281 C 241.007812 285.300781 242.734375 284.046875 243.046875 282.246094 L 246.261719 263.773438 C 246.574219 261.894531 245.320312 260.175781 243.515625 259.859375 L 221.253906 255.949219 C 219.371094 255.554688 217.644531 256.808594 217.332031 258.6875 Z M 253.628906 265.183594 L 250.414062 283.421875 C 250.101562 285.378906 251.355469 287.179688 253.316406 287.492188 L 275.34375 291.328125 C 277.304688 291.640625 279.109375 290.386719 279.421875 288.429688 L 282.636719 270.191406 C 282.949219 268.234375 281.695312 266.4375 279.734375 266.121094 L 257.707031 262.289062 C 255.824219 261.972656 254.023438 263.226562 253.628906 265.183594 Z M 253.628906 265.183594 "/>
<path style=" stroke:none;fill-rule:nonzero;fill:rgb(15.689087%,10.978699%,13.328552%);fill-opacity:1;" d="M 322.148438 312.539062 C 322.617188 312.617188 322.460938 313.398438 321.914062 313.320312 C 310.703125 311.441406 299.492188 309.5625 288.359375 307.761719 C 248.847656 301.1875 209.335938 294.613281 169.902344 288.039062 C 169.433594 287.960938 169.589844 287.179688 170.136719 287.257812 C 181.347656 289.136719 192.558594 291.011719 203.691406 292.8125 C 243.125 299.386719 282.636719 305.964844 322.148438 312.539062 Z M 314.152344 293.441406 C 305.683594 291.5625 297.21875 289.996094 288.671875 288.742188 C 288.203125 288.664062 287.96875 289.449219 288.4375 289.527344 C 296.980469 290.777344 305.527344 292.34375 313.914062 294.222656 C 314.464844 294.300781 314.621094 293.597656 314.152344 293.441406 Z M 277.070312 287.257812 C 269.308594 286.394531 261.703125 285.144531 254.023438 283.65625 C 253.550781 283.578125 253.316406 284.28125 253.785156 284.4375 C 261.46875 286.003906 269.230469 287.257812 276.992188 288.117188 C 277.539062 288.039062 277.539062 287.257812 277.070312 287.257812 Z M 240.773438 281.152344 C 232.933594 279.820312 225.09375 278.488281 217.253906 277.082031 C 216.785156 277.003906 216.546875 277.785156 217.019531 277.863281 C 224.859375 279.195312 232.699219 280.523438 240.539062 281.933594 C 241.007812 281.933594 241.242188 281.230469 240.773438 281.152344 Z M 204.238281 274.417969 C 196.085938 272.933594 187.933594 271.523438 179.703125 270.113281 C 179.230469 270.035156 178.996094 270.820312 179.46875 270.898438 C 187.621094 272.304688 195.851562 273.714844 204.003906 275.203125 C 204.554688 275.28125 204.710938 274.578125 204.238281 274.417969 Z M 209.804688 241.234375 C 202.046875 240.449219 194.363281 239.355469 186.679688 238.023438 C 186.210938 237.945312 185.972656 238.726562 186.445312 238.804688 C 194.207031 240.136719 201.964844 241.234375 209.726562 242.09375 C 210.277344 242.015625 210.277344 241.234375 209.804688 241.234375 Z M 245.242188 247.652344 C 238.34375 247.023438 231.445312 246.242188 224.542969 245.300781 C 224.074219 245.222656 223.839844 246.007812 224.308594 246.085938 C 231.285156 247.023438 238.1875 247.808594 245.164062 248.511719 C 245.789062 248.511719 245.789062 247.730469 245.242188 247.652344 Z M 281.617188 253.992188 C 274.089844 253.128906 266.644531 252.347656 259.117188 251.484375 C 258.648438 251.40625 258.648438 252.191406 259.117188 252.269531 C 266.644531 253.128906 274.089844 253.914062 281.617188 254.773438 C 282.085938 254.773438 282.085938 253.992188 281.617188 253.992188 Z M 322.695312 229.023438 C 315.640625 227.925781 308.664062 226.910156 301.609375 225.8125 C 301.136719 225.734375 300.902344 226.515625 301.371094 226.597656 C 308.429688 227.691406 315.40625 228.710938 322.460938 229.804688 C 323.011719 229.882812 323.246094 229.101562 322.695312 229.023438 Z M 287.027344 222.605469 C 280.285156 221.664062 273.542969 220.492188 266.878906 219.160156 C 266.40625 219.082031 266.171875 219.785156 266.644531 219.941406 C 273.308594 221.273438 280.050781 222.449219 286.789062 223.386719 C 287.339844 223.386719 287.496094 222.683594 287.027344 222.605469 Z M 250.335938 215.871094 C 243.359375 214.386719 236.304688 213.367188 229.171875 212.585938 C 228.699219 212.507812 228.699219 213.289062 229.171875 213.367188 C 236.226562 214.070312 243.203125 215.167969 250.101562 216.578125 C 250.570312 216.734375 250.808594 215.949219 250.335938 215.871094 Z M 214.667969 210.316406 C 211.140625 209.375 207.609375 208.59375 204.003906 208.125 C 200.710938 207.652344 197.105469 207.808594 193.890625 206.792969 C 193.421875 206.636719 193.1875 207.417969 193.65625 207.574219 C 196.871094 208.59375 200.476562 208.4375 203.769531 208.90625 C 207.375 209.453125 210.902344 210.160156 214.433594 211.097656 C 214.980469 211.253906 215.214844 210.472656 214.667969 210.316406 Z M 221.09375 174.546875 C 214.039062 173.996094 207.0625 173.058594 200.085938 171.882812 C 199.613281 171.804688 199.378906 172.589844 199.851562 172.667969 C 206.90625 173.839844 213.960938 174.78125 221.09375 175.328125 C 221.566406 175.328125 221.566406 174.546875 221.09375 174.546875 Z M 257.472656 180.886719 C 250.570312 180.179688 243.75 179.476562 236.851562 178.773438 C 236.382812 178.695312 236.382812 179.476562 236.851562 179.554688 C 243.75 180.257812 250.570312 180.964844 257.472656 181.667969 C 257.941406 181.746094 257.941406 180.964844 257.472656 180.886719 Z M 294.003906 186.832031 C 286.949219 185.738281 279.890625 184.875 272.757812 184.171875 C 272.289062 184.09375 272.289062 184.875 272.757812 184.957031 C 279.8125 185.660156 286.789062 186.519531 293.769531 187.617188 C 294.238281 187.695312 294.472656 186.910156 294.003906 186.832031 Z M 329.75 192.703125 C 323.402344 191.609375 317.050781 190.667969 310.625 189.964844 C 310.152344 189.886719 310.152344 190.667969 310.625 190.746094 C 316.972656 191.453125 323.246094 192.3125 329.515625 193.410156 C 330.066406 193.488281 330.300781 192.78125 329.75 192.703125 Z M 329.75 192.703125 "/>
<path style=" stroke:none;fill-rule:nonzero;fill:rgb(15.689087%,10.978699%,13.328552%);fill-opacity:1;" d="M 364.167969 111.535156 L 354.445312 166.796875 L 186.210938 137.210938 L 195.929688 81.949219 C 197.027344 75.53125 203.222656 71.226562 209.570312 72.402344 L 354.523438 97.839844 C 361.03125 99.011719 365.265625 105.117188 364.167969 111.535156 Z M 364.167969 111.535156 "/>
<path style=" stroke:none;fill-rule:nonzero;fill:rgb(65.489197%,86.669922%,91.758728%);fill-opacity:1;" d="M 339.160156 148.714844 L 206.75 125.46875 C 205.101562 125.15625 204.003906 123.589844 204.320312 122.023438 L 209.179688 94.316406 C 209.492188 92.671875 211.0625 91.578125 212.628906 91.890625 L 345.039062 115.136719 C 346.683594 115.449219 347.78125 117.015625 347.46875 118.582031 L 342.609375 146.289062 C 342.375 147.933594 340.804688 149.027344 339.160156 148.714844 Z M 339.160156 148.714844 "/>
<path style=" stroke:none;fill-rule:nonzero;fill:rgb(65.489197%,86.669922%,91.758728%);fill-opacity:1;" d="M 104.441406 341.265625 C 107.421875 345.726562 106.246094 351.753906 101.855469 354.726562 C 97.386719 357.699219 91.351562 356.527344 88.371094 352.144531 C 85.390625 347.683594 86.566406 341.65625 90.957031 338.679688 C 95.425781 335.628906 101.464844 336.800781 104.441406 341.265625 Z M 100.367188 361.847656 L 95.582031 363.570312 C 95.503906 363.570312 95.425781 363.726562 95.503906 363.804688 L 107.1875 382.589844 C 107.265625 382.746094 107.578125 382.667969 107.5 382.433594 L 100.601562 361.925781 C 100.523438 361.847656 100.445312 361.847656 100.367188 361.847656 Z M 100.367188 361.847656 "/>
<path style=" stroke:none;fill-rule:nonzero;fill:rgb(15.689087%,10.978699%,13.328552%);fill-opacity:1;" d="M 50.898438 288.195312 L 116.828125 243.816406 C 117.769531 243.1875 118.789062 243.1875 119.257812 243.816406 C 119.652344 244.441406 119.257812 245.460938 118.398438 246.007812 L 52.464844 290.386719 C 51.523438 291.011719 50.507812 291.011719 50.035156 290.386719 C 49.566406 289.839844 49.957031 288.820312 50.898438 288.195312 Z M 165.042969 316.453125 C 170.058594 320.835938 175.15625 325.21875 180.171875 329.601562 C 182.054688 331.246094 184.875 328.503906 182.917969 326.863281 C 177.898438 322.480469 172.804688 318.09375 167.785156 313.710938 C 165.984375 312.070312 163.160156 314.808594 165.042969 316.453125 Z M 165.042969 316.453125 "/>
<path style=" stroke:none;fill-rule:nonzero;fill:rgb(81.959534%,31.369019%,50.588989%);fill-opacity:1;" d="M 58.425781 211.019531 L 169.433594 306.902344 C 171.472656 308.625 172.019531 311.519531 170.84375 313.867188 L 168.570312 318.488281 C 167.863281 319.816406 166.140625 320.207031 164.964844 319.191406 L 54.816406 223.074219 Z M 41.648438 222.527344 L 89.078125 361.222656 C 89.9375 363.726562 92.371094 365.292969 95.035156 365.136719 L 100.128906 364.746094 C 101.621094 364.589844 102.640625 363.101562 102.089844 361.691406 L 54.269531 223.777344 Z M 41.648438 222.527344 "/>
<path style=" stroke:none;fill-rule:nonzero;fill:rgb(15.689087%,10.978699%,13.328552%);fill-opacity:1;" d="M 60.148438 232.464844 C 48.46875 240.605469 27.222656 212.429688 19.773438 201.785156 C 18.285156 199.671875 18.914062 196.695312 21.1875 195.050781 L 26.359375 191.453125 L 11.386719 171.023438 C 10.289062 169.535156 10.367188 167.421875 11.542969 166.011719 C 12.953125 164.371094 15.070312 162.414062 17.894531 161.472656 C 19.695312 160.847656 21.734375 161.628906 22.675781 163.273438 L 35.609375 185.035156 L 41.097656 181.199219 C 43.449219 179.554688 46.664062 180.101562 48.074219 182.449219 C 54.894531 193.800781 71.671875 224.402344 60.148438 232.464844 Z M 60.148438 232.464844 "/>
<path style=" stroke:none;fill-rule:nonzero;fill:rgb(65.489197%,86.669922%,91.758728%);fill-opacity:1;" d="M 161.984375 302.519531 C 164.964844 306.980469 163.789062 313.007812 159.398438 315.980469 C 154.929688 318.957031 148.894531 317.78125 145.914062 313.398438 C 142.933594 309.015625 144.109375 302.910156 148.5 299.9375 C 152.890625 296.960938 159.007812 298.136719 161.984375 302.519531 Z M 161.984375 302.519531 "/>
<path style=" stroke:none;fill-rule:nonzero;fill:rgb(65.489197%,86.669922%,91.758728%);fill-opacity:1;" d="M 49.25 202.800781 C 51.367188 205.855469 50.507812 210.082031 47.449219 212.117188 C 44.390625 214.152344 40.15625 213.367188 38.121094 210.316406 C 36.003906 207.261719 36.867188 203.035156 39.921875 201 C 42.980469 198.964844 47.136719 199.75 49.25 202.800781 Z M 35.0625 185.113281 C 34.59375 185.425781 34.121094 185.738281 33.652344 186.050781 C 33.652344 185.972656 33.652344 185.972656 33.574219 185.894531 C 29.652344 179.242188 25.578125 172.667969 21.421875 166.171875 C 21.1875 165.777344 20.480469 166.171875 20.714844 166.5625 C 24.949219 173.058594 29.027344 179.632812 32.867188 186.285156 C 32.867188 186.363281 32.945312 186.363281 33.023438 186.441406 C 32.398438 186.832031 31.769531 187.226562 31.140625 187.617188 C 26.675781 181.042969 22.125 174.464844 17.421875 168.046875 C 17.109375 167.65625 16.480469 168.046875 16.71875 168.441406 C 21.421875 174.9375 25.96875 181.433594 30.4375 188.085938 C 29.886719 188.476562 29.339844 188.867188 28.710938 189.261719 C 24.085938 183.078125 19.460938 176.816406 14.914062 170.632812 C 14.601562 170.238281 13.972656 170.632812 14.207031 171.023438 C 18.835938 177.285156 23.460938 183.46875 28.085938 189.730469 C 27.691406 190.042969 27.222656 190.355469 26.753906 190.667969 C 26.359375 190.980469 26.753906 191.609375 27.144531 191.375 C 29.808594 189.417969 32.476562 187.617188 35.296875 185.894531 C 35.925781 185.503906 35.53125 184.875 35.0625 185.113281 Z M 35.0625 185.113281 "/>
<path style=" stroke:none;fill-rule:nonzero;fill:rgb(15.689087%,10.978699%,13.328552%);fill-opacity:1;" d="M 40.785156 198.886719 C 40.707031 198.417969 41.492188 198.417969 41.570312 198.886719 C 42.351562 204.914062 43.292969 210.863281 44.390625 216.8125 C 44.46875 217.28125 43.765625 217.515625 43.605469 217.046875 C 42.511719 211.019531 41.570312 204.914062 40.785156 198.886719 Z M 43.527344 199.59375 C 44.3125 204.914062 45.097656 210.238281 45.960938 215.636719 C 46.039062 216.105469 46.820312 215.949219 46.742188 215.402344 C 45.960938 210.082031 45.175781 204.757812 44.3125 199.355469 C 44.234375 198.886719 43.449219 199.121094 43.527344 199.59375 Z M 43.527344 199.59375 "/>
<path style=" stroke:none;fill-rule:nonzero;fill:rgb(65.489197%,86.669922%,91.758728%);fill-opacity:1;" d="M 75.90625 251.09375 L 96.054688 283.03125 L 92.371094 285.535156 L 70.574219 254.695312 Z M 75.90625 251.09375 "/>
<path style=" stroke:none;fill-rule:nonzero;fill:rgb(15.689087%,10.978699%,13.328552%);fill-opacity:1;" d="M 153.441406 304.945312 C 153.910156 304.789062 154.144531 305.570312 153.675781 305.726562 C 151.402344 306.355469 151.792969 309.875 154.144531 310.035156 C 157.125 310.269531 156.652344 305.023438 153.675781 305.726562 C 153.125 305.808594 152.890625 305.023438 153.441406 304.945312 C 155.007812 304.554688 156.730469 305.808594 156.96875 307.371094 C 157.203125 308.859375 156.261719 310.503906 154.773438 310.738281 C 153.203125 311.050781 151.714844 309.640625 151.402344 308.234375 C 151.007812 306.746094 151.949219 305.335938 153.441406 304.945312 Z M 145.523438 302.363281 C 142.621094 306.042969 144.1875 312.695312 147.402344 315.667969 C 150.929688 318.878906 156.890625 318.800781 160.417969 315.589844 C 160.808594 315.277344 160.261719 314.730469 159.867188 315.042969 C 156.652344 317.9375 151.089844 318.015625 147.953125 315.121094 C 145.050781 312.539062 143.40625 306.277344 146.070312 302.910156 C 146.382812 302.519531 145.835938 301.972656 145.523438 302.363281 Z M 145.523438 302.363281 "/>
</g>
</svg>
